<mxfile host="app.diagrams.net" modified="2022-03-04T13:53:31.408Z" agent="5.0 (Windows NT 10.0; Win64; x64) AppleWebKit/537.36 (KHTML, like Gecko) Chrome/98.0.4758.102 Safari/537.36" etag="apszQo4L2oUuDSmRetk7" version="16.6.4" type="github">
  <diagram id="IqFUDoZf8vVtF8EWDGZB" name="Page-1">
    <mxGraphModel dx="1422" dy="772" grid="1" gridSize="10" guides="1" tooltips="1" connect="1" arrows="1" fold="1" page="1" pageScale="1" pageWidth="827" pageHeight="1169" math="1" shadow="0">
      <root>
        <mxCell id="0" />
        <mxCell id="1" parent="0" />
        <mxCell id="f5Pn_MOWu74Jpj6cYkKI-1" value="&lt;p class=&quot;MsoNormal&quot; style=&quot;font-size: 15px ; line-height: 17.1px&quot;&gt;&lt;span style=&quot;font-size: 12pt&quot;&gt;1.&amp;nbsp;&lt;/span&gt;&lt;span style=&quot;line-height: 18.24px ; font-size: 12pt&quot;&gt;&lt;font face=&quot;宋体&quot;&gt;小马虎在计算除法时，把除数&lt;/font&gt;&lt;/span&gt;&lt;span style=&quot;line-height: 18.24px ; font-size: 12pt&quot;&gt;43错写成34，这样得到的商是26，余数是2。正确的商是多少？余数是多少？&lt;/span&gt;&lt;span style=&quot;line-height: 18.24px ; font-size: 12pt&quot;&gt;&lt;/span&gt;&lt;/p&gt;&lt;p class=&quot;MsoNormal&quot; style=&quot;font-size: 15px ; line-height: 17.1px&quot;&gt;&lt;span style=&quot;line-height: 17.1px&quot;&gt;&amp;nbsp;&lt;/span&gt;$$\frac{x}{34}=26...2$$&lt;/p&gt;&lt;p class=&quot;MsoNormal&quot; style=&quot;font-size: 15px ; line-height: 17.1px&quot;&gt;&lt;span style=&quot;font-size: medium&quot;&gt;$$x=34\times26+2=886$$&lt;/span&gt;&lt;/p&gt;&lt;p class=&quot;MsoNormal&quot; style=&quot;font-size: 15px ; line-height: 17.1px&quot;&gt;&lt;span style=&quot;line-height: 17.1px&quot;&gt;&lt;font size=&quot;3&quot;&gt;$$\frac{886}{43}=20...26$$&lt;/font&gt;&lt;/span&gt;&lt;/p&gt;&lt;p class=&quot;MsoNormal&quot; style=&quot;font-size: 15px ; line-height: 17.1px&quot;&gt;&lt;span style=&quot;font-size: 12pt&quot;&gt;&amp;nbsp;&lt;/span&gt;&lt;span style=&quot;font-family: &amp;#34;courier new&amp;#34; , &amp;#34;courier&amp;#34; , monospace ; font-size: 13px ; background-color: rgb(255 , 255 , 255)&quot;&gt;&lt;br&gt;&lt;/span&gt;&lt;/p&gt;&lt;p class=&quot;MsoNormal&quot; style=&quot;font-size: 15px ; line-height: 17.1px&quot;&gt;&lt;span style=&quot;line-height: 18.24px ; font-size: 12pt&quot;&gt;&amp;nbsp;&lt;/span&gt;&lt;span style=&quot;line-height: 18.24px ; font-size: 12pt&quot;&gt;2&amp;nbsp;&lt;/span&gt;&lt;span style=&quot;line-height: 18.24px ; font-size: 12pt&quot;&gt;。&lt;/span&gt;&lt;span style=&quot;line-height: 18.24px ; font-size: 12pt&quot;&gt;&lt;font face=&quot;宋体&quot;&gt;&lt;font style=&quot;vertical-align: inherit&quot;&gt;&lt;font style=&quot;vertical-align: inherit&quot;&gt;&lt;font style=&quot;vertical-align: inherit&quot;&gt;&lt;font style=&quot;vertical-align: inherit&quot;&gt;&lt;font style=&quot;vertical-align: inherit&quot;&gt;&lt;font style=&quot;vertical-align: inherit&quot;&gt;&lt;font style=&quot;vertical-align: inherit&quot;&gt;&lt;font style=&quot;vertical-align: inherit&quot;&gt;淘气一家乘火车到成都旅游，乘坐的火车是下午&lt;/font&gt;&lt;/font&gt;&lt;/font&gt;&lt;/font&gt;&lt;/font&gt;&lt;/font&gt;&lt;/font&gt;&lt;/font&gt;&lt;/font&gt;&lt;font style=&quot;vertical-align: inherit&quot;&gt;&lt;font style=&quot;vertical-align: inherit&quot;&gt;&lt;font style=&quot;vertical-align: inherit&quot;&gt;&lt;font style=&quot;vertical-align: inherit&quot;&gt;&lt;font style=&quot;vertical-align: inherit&quot;&gt;&lt;font style=&quot;vertical-align: inherit&quot;&gt;&lt;font style=&quot;vertical-align: inherit&quot;&gt;&lt;font style=&quot;vertical-align: inherit&quot;&gt;4时出发，第二天早上7时到达，火车每小时行驶248千米&lt;/font&gt;&lt;/font&gt;&lt;/font&gt;&lt;/font&gt;&lt;/font&gt;&lt;/font&gt;&lt;/font&gt;&lt;/font&gt;&lt;/span&gt;&lt;span style=&quot;line-height: 18.24px ; font-size: 12pt&quot;&gt;&lt;font face=&quot;宋体&quot;&gt;，&lt;/font&gt;&lt;/span&gt;&lt;/p&gt;&lt;p class=&quot;MsoNormal&quot; style=&quot;font-size: 15px ; line-height: 17.1px&quot;&gt;&lt;span style=&quot;line-height: 18.24px ; font-size: 12pt&quot;&gt;&lt;font face=&quot;宋体&quot;&gt;&lt;font style=&quot;vertical-align: inherit&quot;&gt;&lt;font style=&quot;vertical-align: inherit&quot;&gt;&lt;font style=&quot;vertical-align: inherit&quot;&gt;&lt;font style=&quot;vertical-align: inherit&quot;&gt;&lt;font style=&quot;vertical-align: inherit&quot;&gt;&lt;font style=&quot;vertical-align: inherit&quot;&gt;&lt;font style=&quot;vertical-align: inherit&quot;&gt;&lt;font style=&quot;vertical-align: inherit&quot;&gt;火车到达成都时一共运送了多少千米&lt;/font&gt;&lt;/font&gt;&lt;/font&gt;&lt;/font&gt;&lt;/font&gt;&lt;/font&gt;&lt;/font&gt;&lt;/font&gt;&lt;/font&gt;&lt;font style=&quot;vertical-align: inherit&quot;&gt;&lt;font style=&quot;vertical-align: inherit&quot;&gt;&lt;font style=&quot;vertical-align: inherit&quot;&gt;&lt;font style=&quot;vertical-align: inherit&quot;&gt;&lt;font style=&quot;vertical-align: inherit&quot;&gt;&lt;font style=&quot;vertical-align: inherit&quot;&gt;&lt;font style=&quot;vertical-align: inherit&quot;&gt;？&lt;/font&gt;&lt;/font&gt;&lt;/font&gt;&lt;/font&gt;&lt;/font&gt;&lt;/font&gt;&lt;/font&gt;&lt;/span&gt;&lt;/p&gt;&lt;p class=&quot;MsoNormal&quot; style=&quot;font-size: 15px ; line-height: 17.1px&quot;&gt;&lt;span style=&quot;font-size: 12pt&quot;&gt;$$PM：4:00 = 16:00——&amp;gt;24:00=8(小时);24:00——&amp;gt;07:00=7(小时)$$&lt;/span&gt;&lt;/p&gt;&lt;p class=&quot;MsoNormal&quot; style=&quot;font-size: 15px ; line-height: 17.1px&quot;&gt;&lt;span style=&quot;line-height: 18.24px ; font-size: 12pt&quot;&gt;$$8+7=15$$&lt;/span&gt;&lt;/p&gt;&lt;p class=&quot;MsoNormal&quot; style=&quot;font-size: 15px ; line-height: 17.1px&quot;&gt;&lt;span style=&quot;font-size: 16px&quot;&gt;$$15\times248 = 3720(千米)$$&lt;/span&gt;&lt;/p&gt;&lt;p class=&quot;MsoNormal&quot; style=&quot;font-size: 15px ; line-height: 17.1px&quot;&gt;&lt;span style=&quot;line-height: 18.24px ; font-size: 12pt&quot;&gt;&amp;nbsp;&lt;/span&gt;&lt;/p&gt;&lt;p class=&quot;MsoNormal&quot; style=&quot;font-size: 15px ; line-height: 17.1px&quot;&gt;&lt;span style=&quot;line-height: 18.24px ; font-size: 12pt&quot;&gt;&amp;nbsp;&lt;/span&gt;&lt;/p&gt;&lt;p class=&quot;MsoNormal&quot; style=&quot;font-size: 15px ; line-height: 17.1px&quot;&gt;&lt;span style=&quot;line-height: 18.24px ; font-size: 12pt&quot;&gt;&amp;nbsp;&lt;/span&gt;&lt;/p&gt;&lt;p class=&quot;MsoNormal&quot; style=&quot;font-size: 15px ; line-height: 17.1px&quot;&gt;&lt;span style=&quot;line-height: 18.24px ; font-size: 12pt&quot;&gt;3&amp;nbsp;&lt;/span&gt;&lt;span style=&quot;line-height: 18.24px ; font-size: 12pt&quot;&gt;。&lt;/span&gt;&lt;font style=&quot;vertical-align: inherit&quot;&gt;&lt;span style=&quot;line-height: 18.24px ; font-size: 12pt&quot;&gt;&lt;font face=&quot;宋体&quot;&gt;在一次语文测试中，第一组五名同学的平均成绩是&lt;/font&gt;&lt;/span&gt;&lt;/font&gt;&lt;span style=&quot;line-height: 18.24px ; font-size: 12pt&quot;&gt;90分，排在前面两名同学的平均成绩是95分，&lt;/span&gt;&lt;/p&gt;&lt;p class=&quot;MsoNormal&quot; style=&quot;font-size: 15px ; line-height: 17.1px&quot;&gt;&lt;font style=&quot;vertical-align: inherit&quot;&gt;&lt;span style=&quot;line-height: 18.24px ; font-size: 12pt&quot;&gt;&lt;font style=&quot;vertical-align: inherit&quot;&gt;&lt;font style=&quot;vertical-align: inherit&quot;&gt;&lt;font style=&quot;vertical-align: inherit&quot;&gt;&lt;font style=&quot;vertical-align: inherit&quot;&gt;&lt;font style=&quot;vertical-align: inherit&quot;&gt;&lt;font style=&quot;vertical-align: inherit&quot;&gt;&lt;font style=&quot;vertical-align: inherit&quot;&gt;排在后面两名同学的平均成绩是&lt;/font&gt;&lt;/font&gt;&lt;/font&gt;&lt;/font&gt;&lt;/font&gt;&lt;/font&gt;&lt;/font&gt;&lt;/span&gt;&lt;span style=&quot;line-height: 18.24px ; font-size: 12pt&quot;&gt;&lt;font style=&quot;vertical-align: inherit&quot;&gt;&lt;font style=&quot;vertical-align: inherit&quot;&gt;&lt;font style=&quot;vertical-align: inherit&quot;&gt;&lt;font style=&quot;vertical-align: inherit&quot;&gt;&lt;font style=&quot;vertical-align: inherit&quot;&gt;&lt;font style=&quot;vertical-align: inherit&quot;&gt;&lt;font style=&quot;vertical-align: inherit&quot;&gt;84分，你能求出第三名同学的成绩吗？&lt;/font&gt;&lt;/font&gt;&lt;/font&gt;&lt;/font&gt;&lt;/font&gt;&lt;/font&gt;&lt;/font&gt;&lt;/span&gt;&lt;/font&gt;&lt;span style=&quot;font-size: 10.5pt&quot;&gt;&amp;nbsp;&lt;/span&gt;&lt;/p&gt;&lt;p class=&quot;MsoNormal&quot; style=&quot;font-size: 15px ; line-height: 17.1px&quot;&gt;&lt;span style=&quot;line-height: 18.24px ; font-size: 12pt&quot;&gt;$$\frac{a+b+c+d+e}{5} = 90$$——&amp;gt;&lt;/span&gt;&lt;span style=&quot;font-size: 12pt&quot;&gt;$$(a+b+c+d+e) = 450$$&lt;/span&gt;&lt;br&gt;&lt;/p&gt;&lt;p class=&quot;MsoNormal&quot; style=&quot;font-size: 15px ; line-height: 17.1px&quot;&gt;&lt;span style=&quot;line-height: 18.24px ; font-size: 12pt&quot;&gt;$$\frac{a+b}{2} = 95$$——&amp;gt;$$(a+b) = 190$$&lt;/span&gt;&lt;/p&gt;&lt;p class=&quot;MsoNormal&quot; style=&quot;font-size: 15px ; line-height: 17.1px&quot;&gt;&lt;span style=&quot;line-height: 18.24px ; font-size: 12pt&quot;&gt;$$\frac{d+e}{2} = 84$$——&amp;gt;$$(d+e) = 168$$&lt;/span&gt;&lt;/p&gt;&lt;p class=&quot;MsoNormal&quot; style=&quot;font-size: 15px ; line-height: 17.1px&quot;&gt;&lt;span style=&quot;line-height: 18.24px ; font-size: 12pt&quot;&gt;$$190+c+168 = 450$$——&amp;gt;$$c = 450 - 358 = 92$$&lt;/span&gt;&lt;/p&gt;" style="text;whiteSpace=wrap;html=1;" vertex="1" parent="1">
          <mxGeometry x="40" y="20" width="550" height="710" as="geometry" />
        </mxCell>
        <mxCell id="f5Pn_MOWu74Jpj6cYkKI-2" value="&lt;p class=&quot;MsoNormal&quot; style=&quot;color: rgb(0, 0, 0); font-family: helvetica; font-style: normal; font-weight: 400; letter-spacing: normal; text-indent: 0px; text-transform: none; word-spacing: 0px; background-color: rgb(248, 249, 250); font-size: 15px; text-align: left; line-height: 17.1px;&quot;&gt;&lt;span style=&quot;font-size: 16px&quot;&gt;$$&lt;/span&gt;&lt;span style=&quot;font-size: 16px&quot;&gt;&amp;nbsp;&lt;/span&gt;&lt;/p&gt;&lt;p class=&quot;MsoNormal&quot; style=&quot;color: rgb(0, 0, 0); font-family: helvetica; font-style: normal; font-weight: 400; letter-spacing: normal; text-indent: 0px; text-transform: none; word-spacing: 0px; background-color: rgb(248, 249, 250); font-size: 15px; text-align: left; line-height: 17.1px;&quot;&gt;&lt;span style=&quot;font-size: 16px&quot;&gt;\left&lt;/span&gt;&lt;span style=&quot;font-size: 16px&quot;&gt;\begin{array}{l}&lt;/span&gt;&lt;/p&gt;&lt;p class=&quot;MsoNormal&quot; style=&quot;color: rgb(0, 0, 0); font-family: helvetica; font-style: normal; font-weight: 400; letter-spacing: normal; text-indent: 0px; text-transform: none; word-spacing: 0px; background-color: rgb(248, 249, 250); font-size: 15px; text-align: left; line-height: 17.1px;&quot;&gt;&lt;span style=&quot;font-size: 16px&quot;&gt;\&lt;/span&gt;&lt;span style=&quot;font-size: 16px&quot;&gt;frac{a+b+c+d+e}{5} = 90——&amp;gt;(a+b+c+d+e) = 450\\&lt;/span&gt;&lt;/p&gt;&lt;p class=&quot;MsoNormal&quot; style=&quot;color: rgb(0, 0, 0); font-family: helvetica; font-style: normal; font-weight: 400; letter-spacing: normal; text-indent: 0px; text-transform: none; word-spacing: 0px; background-color: rgb(248, 249, 250); font-size: 15px; text-align: left; line-height: 17.1px;&quot;&gt;&lt;span style=&quot;font-size: 16px&quot;&gt;\frac{a+b}{2} = 95——&amp;gt;(a+b) = 190\\&lt;/span&gt;&lt;/p&gt;&lt;p class=&quot;MsoNormal&quot; style=&quot;color: rgb(0, 0, 0); font-family: helvetica; font-style: normal; font-weight: 400; letter-spacing: normal; text-indent: 0px; text-transform: none; word-spacing: 0px; background-color: rgb(248, 249, 250); font-size: 15px; text-align: left; line-height: 17.1px;&quot;&gt;&lt;span style=&quot;font-size: 16px&quot;&gt;\frac{d+e}{2} = 84——&amp;gt;(d+e) = 168&lt;/span&gt;&lt;/p&gt;&lt;p class=&quot;MsoNormal&quot; style=&quot;color: rgb(0, 0, 0); font-family: helvetica; font-style: normal; font-weight: 400; letter-spacing: normal; text-indent: 0px; text-transform: none; word-spacing: 0px; background-color: rgb(248, 249, 250); font-size: 15px; text-align: left; line-height: 17.1px;&quot;&gt;&lt;span style=&quot;font-size: 16px&quot;&gt;\end{array}&lt;/span&gt;&lt;span style=&quot;font-size: 16px&quot;&gt;\right\}&lt;/span&gt;&lt;span style=&quot;font-size: 16px&quot;&gt;=190+c+168=450——&amp;gt;c=450-358=92&lt;/span&gt;&lt;/p&gt;&lt;p class=&quot;MsoNormal&quot; style=&quot;color: rgb(0, 0, 0); font-family: helvetica; font-style: normal; font-weight: 400; letter-spacing: normal; text-indent: 0px; text-transform: none; word-spacing: 0px; background-color: rgb(248, 249, 250); font-size: 15px; text-align: left; line-height: 17.1px;&quot;&gt;&lt;span style=&quot;font-size: 16px&quot;&gt;$$&lt;/span&gt;&lt;/p&gt;&lt;br class=&quot;Apple-interchange-newline&quot;&gt;" style="text;whiteSpace=wrap;html=1;" vertex="1" parent="1">
          <mxGeometry x="80" y="1260" width="420" height="270" as="geometry" />
        </mxCell>
        <mxCell id="f5Pn_MOWu74Jpj6cYkKI-7" value="&lt;span&gt;每日时间段划分&lt;/span&gt;" style="rounded=0;whiteSpace=wrap;html=1;gradientColor=#ffd966;fillColor=#fff2cc;strokeColor=#d6b656;" vertex="1" parent="1">
          <mxGeometry x="860" y="60" width="240" height="30" as="geometry" />
        </mxCell>
        <mxCell id="f5Pn_MOWu74Jpj6cYkKI-8" value="&lt;span&gt;时间段内固定的行为&lt;/span&gt;" style="rounded=0;whiteSpace=wrap;html=1;gradientColor=#ffa500;fillColor=#ffcd28;strokeColor=#d79b00;" vertex="1" parent="1">
          <mxGeometry x="860" y="90" width="120" height="30" as="geometry" />
        </mxCell>
        <mxCell id="f5Pn_MOWu74Jpj6cYkKI-9" value="&lt;span&gt;时间段内固定的行为&lt;/span&gt;" style="rounded=0;whiteSpace=wrap;html=1;gradientColor=#ffa500;fillColor=#ffcd28;strokeColor=#d79b00;" vertex="1" parent="1">
          <mxGeometry x="980" y="90" width="120" height="30" as="geometry" />
        </mxCell>
        <mxCell id="f5Pn_MOWu74Jpj6cYkKI-10" value="&lt;span&gt;Docker在日常生活中的应用&lt;/span&gt;" style="rounded=0;whiteSpace=wrap;html=1;gradientColor=#ea6b66;fillColor=#f8cecc;strokeColor=#b85450;" vertex="1" parent="1">
          <mxGeometry x="860" y="120" width="240" height="30" as="geometry" />
        </mxCell>
      </root>
    </mxGraphModel>
  </diagram>
</mxfile>
